<?xml version="1.0" encoding="utf-8"?>
<!-- Generator: Adobe Illustrator 16.0.0, SVG Export Plug-In . SVG Version: 6.00 Build 0)  -->
<!DOCTYPE svg PUBLIC "-//W3C//DTD SVG 1.1//EN" "http://www.w3.org/Graphics/SVG/1.1/DTD/svg11.dtd">
<svg version="1.1" id="图层_1" xmlns="http://www.w3.org/2000/svg" xmlns:xlink="http://www.w3.org/1999/xlink" x="0px" y="0px"
	 width="1000px" height="1000px" viewBox="0 0 1000 1000" enable-background="new 0 0 1000 1000" xml:space="preserve">
<g>
	<path fill="#F16311" d="M758.333,126.941l-22.762,6.826c0,0-63.59-58.726-206.846-58.726
		c-143.247,0-395.362,119.585-395.362,385.053c0,76.888,32.375,167.331,50.582,188.579c-15.172,18.812-64.34,91.659-64.34,91.659
		S50,656.766,50,483.561C50,310.365,209.44,48.937,508.909,48.937C550.991,48.937,657.313,57.641,758.333,126.941z"/>
	<path fill="#F16510" d="M170.595,509.063c0,0-24.282-173.611,112.502-303.916c58.271-56.656,155.792-111.892,279.015-111.892
		c40.674,0,138.406,19.419,165.114,46.133c-19.421,7.891-100.165,46.133-100.165,46.133s-17.598-22.46-122.608-22.46
		C399.438,163.06,198.515,233.473,170.595,509.063z"/>
	<path fill="#F16311" d="M865.836,120.974L524.277,269.083c0,0-129.944,46.337-120.107,185.346
		c16.51,16.385,134.268,133.543,134.268,133.543s127.476,26.713,181.504-100.158C773.962,360.944,865.836,120.974,865.836,120.974z"
		/>
	<g>
		<defs>
			<path id="SVGID_1_" d="M865.836,120.974L524.277,269.083c0,0-129.944,46.337-120.107,185.346
				c16.51,16.385,134.268,133.543,134.268,133.543s127.476,26.713,181.504-100.158C773.962,360.944,865.836,120.974,865.836,120.974
				z"/>
		</defs>
		<clipPath id="SVGID_2_">
			<use xlink:href="#SVGID_1_"  overflow="visible"/>
		</clipPath>
		<polygon clip-path="url(#SVGID_2_)" fill="#FE9015" points="896.585,81.719 865.836,120.974 461.354,541.831 347.839,439.25 
			359.375,338.489 491.096,240.757 584.578,216.475 622.212,196.446 788.537,128.458 		"/>
	</g>
	<path fill="#FFFFFF" d="M547.548,402.221c0,0,27.921-86.802,94.089-152.963c-33.386,9.103-184.383,63.737-193.563,160.25
		c9.636-18.816,57.595-71.019,105.544-86.198C545.727,343.949,541.479,384.013,547.548,402.221z"/>
	<path fill="#FC880D" d="M864.215,234.283l-49.368,115.33c0,0,50.989,61.107,50.989,188.583
		c0,127.479-76.696,340.229-341.96,387.584c0,13.346,70.415,0.901,72.237,0.901c1.821,0,189.985-90.443,189.985-90.443
		l71.635-66.159c0,0,92.267-128.09,92.267-291.374C950,386.438,899.211,262.407,864.215,234.283z"/>
	<polygon fill="#FE9015" points="294.023,574.213 424.324,704.514 518.622,608.101 391.945,479.113 	"/>
	<polygon fill="#FFFFFF" points="389.519,521.2 336.511,572.994 379.812,615.489 432.422,564.5 	"/>
	<path fill="#EE5C13" d="M274.999,595.659l131.319,129.9c0,0-123.226,145.279-328.805,207.804
		C75.897,904.428,150.359,708.57,274.999,595.659z"/>
	<g>
		<defs>
			<path id="SVGID_3_" d="M864.215,234.283l-49.368,115.33c0,0,50.989,61.107,50.989,188.583
				c0,127.479-79.82,339.625-345.098,386.97c0,13.356,73.553,1.516,75.375,1.516c1.821,0,189.985-90.443,189.985-90.443
				l71.635-66.159c0,0,92.267-128.09,92.267-291.374C950,386.438,899.211,262.407,864.215,234.283z"/>
		</defs>
		<clipPath id="SVGID_4_">
			<use xlink:href="#SVGID_3_"  overflow="visible"/>
		</clipPath>
		<path clip-path="url(#SVGID_4_)" fill="#F1670E" d="M829.824,282.841c0,0,84.968,94.493,79.501,236.536
			c-5.466,142.039-69.8,378.177-424.298,413.986c17-16.386,31.561-24.892,31.561-24.892l48.564-10.918l146.283-66.169l85.596-99.555
			l22.453-68.594l32.783-146.899l-18.207-97.116l-32.783-60.094l8.506-38.241L829.824,282.841z"/>
	</g>
	<path fill="#FE9015" d="M829.084,477.492c0,0,50.375,382.415-363.09,427.75c-53.904,4.141-138.433-18.018-152.034-29.547
		c7.259,14.569,105.691,48.972,176.613,48.972c70.925,0,217.816-21.046,334.474-136.985
		c30.836-30.96,113.983-128.187,119.257-258.639c-0.162,54.682-47.921,404.32-451.11,421.925
		C369.271,954,268.93,882.978,268.93,882.978l96.72-70.415c0,0,41.703,24.287,143.259,24.287
		C610.455,836.85,828.959,745.322,829.084,477.492z"/>
	<g>
		<defs>
			<path id="SVGID_5_" d="M274.999,595.659l131.319,129.9c0,0-123.226,145.279-328.805,207.804
				C75.897,904.428,150.359,708.57,274.999,595.659z"/>
		</defs>
		<clipPath id="SVGID_6_">
			<use xlink:href="#SVGID_5_"  overflow="visible"/>
		</clipPath>
		<path clip-path="url(#SVGID_6_)" fill="#FF9013" d="M302.109,608.101l45.73,44.218L132.957,871.442
			C132.957,871.442,180.3,722.923,302.109,608.101z"/>
	</g>
	<g>
		<defs>
			<path id="SVGID_7_" d="M758.333,126.941l-22.762,6.826c0,0-63.59-58.726-206.846-58.726
				c-143.247,0-395.362,119.585-395.362,385.053c0,76.888,32.375,167.331,50.582,188.579c-15.172,18.812-64.34,91.659-64.34,91.659
				S50,656.766,50,483.561C50,310.365,209.44,48.937,508.909,48.937C550.991,48.937,657.313,57.641,758.333,126.941z"/>
		</defs>
		<clipPath id="SVGID_8_">
			<use xlink:href="#SVGID_7_"  overflow="visible"/>
		</clipPath>
		<path clip-path="url(#SVGID_8_)" fill="#FE9015" d="M362.414,65.938c0,0-251.707,118.163-264.661,356.927
			c-4.045,86.599,6.673,186.354,75.876,264.661c-20.035,22.454-39.46,67.375-40.673,69.196
			c-1.213,1.822-57.668,13.356-57.668,13.356l-208.206-375.441c0,0,55.846-231.577,70.415-243.72
			c14.57-12.139,298.65-101.979,298.65-101.979L362.414,65.938z"/>
	</g>
	<g>
		<defs>
			<path id="SVGID_9_" d="M170.595,509.063c0,0-24.282-173.611,112.502-303.916c58.271-56.656,155.792-111.892,279.015-111.892
				c40.674,0,138.406,19.419,165.114,46.133c-19.421,7.891-100.165,46.133-100.165,46.133s-17.598-22.46-122.608-22.46
				C399.438,163.06,198.515,233.473,170.595,509.063z"/>
		</defs>
		<clipPath id="SVGID_10_">
			<use xlink:href="#SVGID_9_"  overflow="visible"/>
		</clipPath>
		<path clip-path="url(#SVGID_10_)" fill="#FE9015" d="M744.219,150.313l-54.632,18.816c0,0-41.277-42.49-142.039-42.49
			c-100.764,0-220.95,31.564-287.118,86.801c52.812-53.415,106.227-86.801,106.227-86.801l55.846-21.856l70.415-18.816l49.768-4.248
			l70.83,0.909l90.646,22.155L744.219,150.313z"/>
	</g>
</g>
</svg>
