<?xml version="1.0" encoding="utf-8"?>
<!-- Generator: Adobe Illustrator 16.0.0, SVG Export Plug-In . SVG Version: 6.00 Build 0)  -->
<!DOCTYPE svg PUBLIC "-//W3C//DTD SVG 1.1//EN" "http://www.w3.org/Graphics/SVG/1.1/DTD/svg11.dtd">
<svg version="1.1" id="图层_1" xmlns="http://www.w3.org/2000/svg" xmlns:xlink="http://www.w3.org/1999/xlink" x="0px" y="0px"
	 width="1000px" height="1000px" viewBox="0 0 1000 1000" enable-background="new 0 0 1000 1000" xml:space="preserve">
<g>
	<path d="M662.562,683.383c0,0,21.382,31.953,17.059,95.662c-4.327,63.71-2.164,108.74,39.129,108.74s106.772-94.977,93.204-198.799
		c5.899,4.72,36.574,5.8,42.669-16.222c6.097-22.022,12.586-227.604-170.677-201.65c0.785-30.279-17.107-126.04-34.805-150.226
		c20.352-11.503,48.962-43.652,48.962-96.744c0-53.091-43.65-158.484-155.339-197.812c-18.485-5.899-28.119,2.851-20.156,17.303
		c7.964,14.453,11.945,39.376,7.521,59.728s-45.373,74.967-45.373,120.192c0,45.226,18.677,72.558,49.749,99.693
		c-8.259,14.354-31.954,96.153-32.247,142.755c-5.899-10.618-47.782-48.077-127.124-48.077
		c-79.341,0-146.885,73.737-146.885,113.262c0,25.513,24.039,31.412,33.182,31.412c9.144,0,36.134-4.77,63.071-22.467
		c26.937-17.697,49.157-20.25,55.646-20.25s37.754,10.028,37.754,56.236c0,22.612-23.988,93.202-70.984,135.872
		c-17.896,16.126-87.404,73.296-102.152,89.223c-14.748,15.928-44.095,66.659-67.396,83.766
		c-23.301,17.107-34.214,24.629-34.214,35.395s12.388,55.155,33.182,55.155s24.776-5.604,51.616-5.604s34.804,5.604,82.438,5.604
		s137.594-26.103,199.237-75.359C571.274,850.914,636.753,784.256,662.562,683.383z"/>
	<path fill="#F1B517" d="M647.371,654.035c0,0-14.452-38.049-55.155-38.049s-51.026,34.362-60.612,61.497
		c-9.586,27.136-44.094,95.269-114.587,153.669c-32.739,25.66-100.135,71.23-118.717,71.23c-10.323,0-10.766-10.323-10.766-12.24
		s1.033-8.554,13.273-12.535c12.24-3.982,95.663-44.294,153.473-115.867c18.089-21.628,75.506-100.675,70.787-156.911
		c-4.719-56.238-58.399-88.881-108.345-88.093c12.192,7.078,23.891,28.02,23.891,59.284s-19.762,87.601-53.976,125.06
		c-34.214,37.458-94.089,92.318-117.685,107.656c-13.273,8.554-33.33,41.588-39.229,51.616s-28.02,36.278-34.214,40.998
		c5.014,3.981,20.352,16.665,20.204,46.896c11.945-1.475,38.59,2.261,57.467,4.03c18.876,1.77,88.976,4.523,151.505-27.331
		S608.438,814.93,647.371,654.035z"/>
	<path fill="#FADE71" d="M584.842,592.441c0,0,48.964,0.785,72.754,32.641c23.794,31.854,40.312,71.965,42.867,114.242
		c2.555,42.276-1.376,92.22,0.59,106.771c1.965,14.552,14.551,17.501,20.057,17.501c5.504,0,38.346-14.943,52.696-64.889
		c14.355-49.945,18.877-85.342,10.423-131.156c-8.455-45.813-45.816-102.248-116.604-102.248
		C652.681,565.304,600.965,574.744,584.842,592.441z"/>
	<path fill="#FFEA7B" d="M517.594,534.433c0,0-28.314-92.91-129.777-92.91c-42.473,0-108.836,25.071-133.907,79.048
		c-6.784,14.157,2.212,19.467,11.355,19.467s27.873-10.471,46.602-19.614S427.045,454.5,517.594,534.433z"/>
	<path fill="#FFEA7B" d="M520.543,490.779c0,0,34.608,40.704,30.871,99.496c6.097-7.669,48.374-47.192,109.329-46.603
		c0-14.351,4.62-75.015-5.998-102.15c-9.733,4.424-76.687,12.683-123.289,0C529.981,450.371,520.543,490.779,520.543,490.779z"/>
	<path fill="#FFEA7B" d="M685.321,494.517l-0.982,49.746c0,0,12.587-0.392,20.352,5.312c1.867-7.473,34.705-40.705,85.437-30.479
		C784.229,511.818,738.021,475.541,685.321,494.517z"/>
	<path fill="#F5BD1E" d="M728.777,558.029c0,0,64.104,33.232,73.147,84.749c1.574,11.208,8.849,28.659,28.463,26.151
		c3.097-8.848,9.291-69.607-13.715-107.361C793.666,523.814,732.021,541.364,728.777,558.029z"/>
	<path fill="#4582A1" d="M534.11,416.747c0,0,43.948,20.646,118.865,1.475c-2.359-20.057-17.598-76.293-24.087-87.108
		c-9.242,0-75.115,0-75.115,0S541.189,354.905,534.11,416.747z"/>
	<path fill="#119A70" d="M556.527,308.943c0,0-48.962-23.841-48.962-81.259c0-31.265,13.962-58.793,33.624-91.041
		c19.662-32.247,13.372-70.981,10.028-82.189c15.533,4.719,115.03,62.329,123.289,157.893c2.359,29.888-10.423,85.831-48.962,96.596
		c7.079-7.324,23.4-42.917,23.4-73.197s-6.688-40.506-13.962-40.506s-8.256,10.028-6.685,22.416
		c1.571,12.388,0.195,73.737-27.334,89.862c-10.028,0-17.696,0-17.696,0s-30.675-27.135-30.675-70.198
		c0-7.472-2.457-16.714-7.718-16.714s-9.438,6.636-9.438,26.545S547.236,299.799,556.527,308.943z"/>
	<g>
		<defs>
			<path id="SVGID_1_" d="M647.371,654.035c0,0-14.452-38.049-55.155-38.049s-51.026,34.362-60.612,61.497
				c-9.586,27.136-44.094,95.269-114.587,153.669c-32.739,25.66-100.135,71.23-118.717,71.23c-10.323,0-10.766-10.323-10.766-12.24
				s1.033-8.554,13.273-12.535c12.24-3.982,95.663-44.294,153.473-115.867c18.089-21.628,75.506-100.675,70.787-156.911
				c-4.719-56.238-58.399-88.881-108.345-88.093c12.192,7.078,23.891,28.02,23.891,59.284s-19.762,87.601-53.976,125.06
				c-34.214,37.458-94.089,92.318-117.685,107.656c-13.273,8.554-33.33,41.588-39.229,51.616s-28.02,36.278-34.214,40.998
				c5.014,3.981,20.352,16.665,20.204,46.896c11.945-1.475,38.59,2.261,57.467,4.03c18.876,1.77,88.976,4.523,151.505-27.331
				S608.438,814.93,647.371,654.035z"/>
		</defs>
		<clipPath id="SVGID_2_">
			<use xlink:href="#SVGID_1_"  overflow="visible"/>
		</clipPath>
		<path clip-path="url(#SVGID_2_)" fill="#FCD424" d="M420.261,631.375c0,0,17.105-30.085,54.665-30.085
			c23.202,0,46.012,14.354,49.942,51.517C528.802,689.971,400.4,833.71,400.4,833.71l-91.236,50.338l-23.204,10.618l-90.45,37.753
			l-28.315-21.04l28.315-31.854l27.135-29.495l19.467-25.956l21.236-22.416l30.085-16.517l21.826-27.726l58.99-55.45l15.927-21.236
			l20.646-21.827L420.261,631.375z"/>
		<path clip-path="url(#SVGID_2_)" fill="#FFEA7B" d="M408.659,630.785c0,0,25.17-35.395,36.574-27.529
			c11.406,7.864,1.18,37.361-15.927,68.822c-17.107,31.46-75.705,99.103-127.22,135.282
			C274.95,826.631,195.51,923.767,195.51,923.767l-9.832-12.189l13.764-23.597l7.473-13.371l16.517-17.697l18.484-25.955
			l30.28-49.552l18.091-4.72l44.438-31.068l44.833-57.811l19.663-23.987L408.659,630.785z"/>
	</g>
	<g>
		<defs>
			<path id="SVGID_3_" d="M584.842,592.441c0,0,48.964,0.785,72.754,32.641c23.794,31.854,40.312,71.965,42.867,114.242
				c2.555,42.276-1.376,92.22,0.59,106.771c1.965,14.552,14.551,17.501,20.057,17.501c5.504,0,38.346-14.943,52.696-64.889
				c14.355-49.945,18.877-85.342,10.423-131.156c-8.455-45.813-45.816-102.248-116.604-102.248
				C652.681,565.304,600.965,574.744,584.842,592.441z"/>
		</defs>
		<clipPath id="SVGID_4_">
			<use xlink:href="#SVGID_3_"  overflow="visible"/>
		</clipPath>
		<path clip-path="url(#SVGID_4_)" fill="#FFEA7B" d="M786.883,640.615c0,0-42.305,69.732-130.368,2.064
			c-25.955-23.596-50.142-36.279-50.142-36.279l-28.314-9.733c0,0-11.504-7.668-11.504-8.554c0-0.885,11.799-10.027,12.684-10.322
			s10.537-4.13,11.906-4.425c1.366-0.295,88.672-16.517,88.672-16.517l54.565,19.171L786.883,640.615z"/>
	</g>
	<g>
		<defs>
			<path id="SVGID_5_" d="M520.543,490.779c0,0,34.608,40.704,30.871,99.496c6.097-7.669,48.374-47.192,109.329-46.603
				c0-14.351,4.62-75.015-5.998-102.15c-9.733,4.424-76.687,12.683-123.289,0C529.981,450.371,520.543,490.779,520.543,490.779z"/>
		</defs>
		<clipPath id="SVGID_6_">
			<use xlink:href="#SVGID_5_"  overflow="visible"/>
		</clipPath>
		<path clip-path="url(#SVGID_6_)" fill="#F1B517" d="M617.286,438.573c0,0-3.244,99.399-14.452,125.354
			c10.618,2.654,21.826-3.244,21.826-3.244l24.48-4.424l12.603-3.835l6.569-35.702l4.425-44.525c0,0-2.064-30.97-2.359-30.675
			c-0.296,0.295-8.635-10.028-8.635-10.028L617.286,438.573z"/>
	</g>
	<g>
		<defs>
			<path id="SVGID_7_" d="M534.11,416.747c0,0,43.948,20.646,118.865,1.475c-2.359-20.057-17.598-76.293-24.087-87.108
				c-9.242,0-75.115,0-75.115,0S541.189,354.905,534.11,416.747z"/>
		</defs>
		<clipPath id="SVGID_8_">
			<use xlink:href="#SVGID_7_"  overflow="visible"/>
		</clipPath>
		<path clip-path="url(#SVGID_8_)" fill="#6FB0C2" d="M600.77,320.593c0,0,20.057,66.069,13.272,113.261
			c-7.964,4.129-31.854,2.655-34.804,2.655s-35.395-2.655-35.395-2.655l-18.287-5.309v-32.739l12.389-47.192
			c0,0,5.309-20.646,5.604-21.531s6.784-6.489,6.784-6.489H600.77z"/>
		<path clip-path="url(#SVGID_8_)" fill="#FFFFFF" d="M573.929,313.515c0,0-27.43,49.256-25.365,115.62
			c5.014,2.949,12.627,2.359,12.627,2.359l2.12-2.359c0,0,14.453-109.624,19.172-115.62
			C577.764,310.565,573.929,313.515,573.929,313.515z"/>
	</g>
	<g>
		<defs>
			<path id="SVGID_9_" d="M556.527,308.943c0,0-48.962-23.841-48.962-81.259c0-31.265,13.962-58.793,33.624-91.041
				c19.662-32.247,13.372-70.981,10.028-82.189c15.533,4.719,115.03,62.329,123.289,157.893
				c2.359,29.888-10.423,85.831-48.962,96.596c7.079-7.324,23.4-42.917,23.4-73.197s-6.688-40.506-13.962-40.506
				s-8.256,10.028-6.685,22.416c1.571,12.388,0.195,73.737-27.334,89.862c-10.028,0-17.696,0-17.696,0s-30.675-27.135-30.675-70.198
				c0-7.472-2.457-16.714-7.718-16.714s-9.438,6.636-9.438,26.545S547.236,299.799,556.527,308.943z"/>
		</defs>
		<clipPath id="SVGID_10_">
			<use xlink:href="#SVGID_9_"  overflow="visible"/>
		</clipPath>
		<path clip-path="url(#SVGID_10_)" fill="#6FB84D" d="M595.46,69.591c0,0,38.934,71.378,40.998,102.643
			c-7.373-17.992-17.401-40.703-36.868-48.077c6.783,16.517,8.111,61.645-23.301,79.046c-12.979,5.899-35.984,1.475-35.984,1.475
			L523.492,250.1l-26.249,7.079l6.782-62.825l20.646-58.4c0,0,15.928-42.768,15.928-44.537c0-1.77-3.244-40.703-3.244-40.703
			l7.373-8.849l13.863,7.668L595.46,69.591z"/>
		<path clip-path="url(#SVGID_10_)" fill="#278AC1" d="M512.284,275.171l-16.516-55.155l5.604-35.394l8.848-18.287l10.323-13.568
			l44.925-7.079c0,0,5.807,44.538,20.849,57.515c15.043,12.978,51.616,63.151,18.582,109c-9.733,3.081-56.445,2.786-56.445,2.786
			l-35.284-28.905L512.284,275.171z"/>
		<path clip-path="url(#SVGID_10_)" fill="#A1DA7C" d="M561.246,41.866c0,0,19.845,85.847-15.928,125.648
			c-8.848,10.028-41.293,58.695-25.365,115.326c-11.798-8.259-17.695-16.518-17.695-16.518s-8.849-36.271-8.849-35.98
			s-1.77-24.484-1.77-24.484l46.601-90.255l5.309-36.869l0.295-26.545L561.246,41.866z"/>
	</g>
</g>
</svg>
